<svg width="50" height="50" viewBox="0 0 214 215" fill="none" xmlns="http://www.w3.org/2000/svg">
<path d="M208.5 107.5C208.5 163.857 163.033 209.5 107 209.5C50.9672 209.5 5.5 163.857 5.5 107.5C5.5 51.1428 50.9672 5.5 107 5.5C163.033 5.5 208.5 51.1428 208.5 107.5Z" stroke="white" stroke-width="11"/>
<line x1="106" y1="12" x2="106" y2="209" stroke="white" stroke-width="12"/>
<path d="M160 107.5C160 136.381 153.617 162.231 143.596 180.646C133.449 199.291 120.422 209 107.5 209C94.5778 209 81.5506 199.291 71.4044 180.646C61.3834 162.231 55 136.381 55 107.5C55 78.6186 61.3834 52.7687 71.4044 34.354C81.5506 15.7093 94.5778 6 107.5 6C120.422 6 133.449 15.7093 143.596 34.354C153.617 52.7687 160 78.6186 160 107.5Z" stroke="white" stroke-width="12"/>
<line x1="12" y1="109" x2="207" y2="109" stroke="white" stroke-width="12"/>
<path d="M176 43.5C176 50.7174 170.17 58.7754 157.293 65.3858C144.731 71.8343 126.959 76 107 76C87.0411 76 69.2691 71.8343 56.7071 65.3858C43.8296 58.7754 38 50.7174 38 43.5C38 36.2826 43.8296 28.2246 56.7071 21.6142C69.2691 15.1657 87.0411 11 107 11C126.959 11 144.731 15.1657 157.293 21.6142C170.17 28.2246 176 36.2826 176 43.5Z" stroke="white" stroke-width="12"/>
<path d="M176 174.5C176 181.717 170.17 189.775 157.293 196.386C144.731 202.834 126.959 207 107 207C87.0411 207 69.2691 202.834 56.7071 196.386C43.8296 189.775 38 181.717 38 174.5C38 167.283 43.8296 159.225 56.7071 152.614C69.2691 146.166 87.0411 142 107 142C126.959 142 144.731 146.166 157.293 152.614C170.17 159.225 176 167.283 176 174.5Z" stroke="white" stroke-width="12"/>
</svg>
