<svg width="40" height="40" viewBox="0 0 458 433" fill="none" xmlns="http://www.w3.org/2000/svg">
<path d="M345 215C345 278.513 292.617 330 228 330C163.383 330 111 278.513 111 215C111 151.487 163.383 100 228 100C292.617 100 345 151.487 345 215Z" fill="#DECA15"/>
<path d="M228 0L258.311 84H197.689L228 0Z" fill="#DECA15"/>
<path d="M228 0L258.311 84H197.689L228 0Z" fill="#DECA15"/>
<path d="M228 0L258.311 84H197.689L228 0Z" fill="#DECA15"/>
<path d="M457.205 215.663L373.027 245.476L373.387 184.855L457.205 215.663Z" fill="#DECA15"/>
<path d="M457.205 215.663L373.027 245.476L373.387 184.855L457.205 215.663Z" fill="#DECA15"/>
<path d="M457.205 215.663L373.027 245.476L373.387 184.855L457.205 215.663Z" fill="#DECA15"/>
<path d="M229.586 432.486L198.086 348.924L258.702 348.064L229.586 432.486Z" fill="#DECA15"/>
<path d="M229.586 432.486L198.086 348.924L258.702 348.064L229.586 432.486Z" fill="#DECA15"/>
<path d="M229.586 432.486L198.086 348.924L258.702 348.064L229.586 432.486Z" fill="#DECA15"/>
<path d="M0.110626 219.536L83.1065 186.575L85.0302 247.167L0.110626 219.536Z" fill="#DECA15"/>
<path d="M0.110626 219.536L83.1065 186.575L85.0302 247.167L0.110626 219.536Z" fill="#DECA15"/>
<path d="M0.110626 219.536L83.1065 186.575L85.0302 247.167L0.110626 219.536Z" fill="#DECA15"/>
<path d="M47.9562 69.2567L132.387 98.3466L94.3575 145.556L47.9562 69.2567Z" fill="#DECA15"/>
<path d="M47.9562 69.2567L132.387 98.3466L94.3575 145.556L47.9562 69.2567Z" fill="#DECA15"/>
<path d="M47.9562 69.2567L132.387 98.3466L94.3575 145.556L47.9562 69.2567Z" fill="#DECA15"/>
<path d="M405.551 73.5193L354.675 146.912L319.534 97.5147L405.551 73.5193Z" fill="#DECA15"/>
<path d="M405.551 73.5193L354.675 146.912L319.534 97.5147L405.551 73.5193Z" fill="#DECA15"/>
<path d="M405.551 73.5193L354.675 146.912L319.534 97.5147L405.551 73.5193Z" fill="#DECA15"/>
<path d="M394.652 368.953L311.946 335.271L352.509 290.22L394.652 368.953Z" fill="#DECA15"/>
<path d="M394.652 368.953L311.946 335.271L352.509 290.22L394.652 368.953Z" fill="#DECA15"/>
<path d="M394.652 368.953L311.946 335.271L352.509 290.22L394.652 368.953Z" fill="#DECA15"/>
<path d="M64.5876 382.842L96.1905 299.32L142.242 338.744L64.5876 382.842Z" fill="#DECA15"/>
<path d="M64.5876 382.842L96.1905 299.32L142.242 338.744L64.5876 382.842Z" fill="#DECA15"/>
<path d="M64.5876 382.842L96.1905 299.32L142.242 338.744L64.5876 382.842Z" fill="#DECA15"/>
</svg>
